<svg xmlns="http://www.w3.org/2000/svg" width="1277" height="417" viewBox="0 0 1277 417"><rect width="100%" height="100%" fill="#DDDDDD"/><path fill="#999999" d="M309.82 249.445h19.5v13.88h-60v-13.88h21.97v-63.22q0-3.75.22-7.73l-15.59 13.06q-1.35 1.05-2.67 1.31-1.31.26-2.47.04-1.16-.23-2.07-.79-.89-.56-1.34-1.24l-5.86-8.02 33.08-28.13h15.23v94.72Zm74.62-3.37h27.82q3 0 4.77 1.69 1.76 1.68 1.76 4.46v11.1h-74.4v-6.15q0-1.88.79-3.94.78-2.06 2.51-3.71l32.93-33q4.12-4.2 7.38-8.02 3.26-3.83 5.44-7.58 2.18-3.75 3.34-7.61 1.16-3.87 1.16-8.14 0-3.9-1.12-6.86-1.13-2.96-3.19-4.99-2.06-2.02-4.95-3.04-2.89-1.01-6.49-1.01-3.3 0-6.11.94-2.82.94-4.99 2.62-2.17 1.69-3.67 3.94t-2.25 4.95q-1.28 3.45-3.3 4.58-2.03 1.12-5.86.52l-9.75-1.72q1.13-7.8 4.36-13.69 3.22-5.89 8.06-9.83 4.83-3.93 11.1-5.92 6.26-1.99 13.46-1.99 7.5 0 13.73 2.21 6.22 2.22 10.65 6.27 4.42 4.04 6.89 9.75 2.48 5.7 2.48 12.67 0 6-1.76 11.1-1.77 5.1-4.73 9.75-2.96 4.65-6.93 9-3.98 4.35-8.33 8.85l-24.45 24.98q3.53-1.06 7.01-1.62 3.49-.56 6.64-.56Zm48.23-91.2h74.92v8.03q0 3.59-.75 5.81-.75 2.21-1.5 3.71l-41.1 84.6q-1.27 2.63-3.6 4.46-2.32 1.84-6.22 1.84h-13.43l41.93-82.88q1.42-2.54 2.81-4.68 1.39-2.14 3.11-4.09h-51.9q-1.72 0-3-1.27-1.27-1.28-1.27-3v-12.53Zm87 0h74.92v8.03q0 3.59-.75 5.81-.75 2.21-1.5 3.71l-41.1 84.6q-1.27 2.63-3.6 4.46-2.32 1.84-6.22 1.84h-13.43l41.93-82.88q1.42-2.54 2.81-4.68 1.39-2.14 3.11-4.09h-51.9q-1.72 0-3-1.27-1.27-1.28-1.27-3v-12.53Zm195.37 83.63-9.82 9.67-25.43-25.42-25.65 25.57-9.82-9.68 25.65-25.72-24.45-24.45 9.75-9.75 24.45 24.45 24.3-24.3 9.9 9.75-24.38 24.38 25.5 25.5Zm64.95-16.06h33v-35.47q0-5.03.67-11.1l-33.67 46.57Zm49.12 0h13.66v10.73q0 1.5-.98 2.59-.98 1.09-2.77 1.09h-9.91v26.47h-16.12v-26.47h-45.75q-1.88 0-3.3-1.17-1.43-1.16-1.8-2.88l-1.95-9.38 51.37-68.62h17.55v67.64Zm75.6 27h19.5v13.88h-60v-13.88h21.98v-63.22q0-3.75.22-7.73l-15.6 13.06q-1.35 1.05-2.66 1.31t-2.47.04q-1.16-.23-2.07-.79-.9-.56-1.34-1.24l-5.86-8.02 33.08-28.13h15.22v94.72Zm35.86-94.57h74.92v8.03q0 3.59-.75 5.81-.75 2.21-1.5 3.71l-41.1 84.6q-1.28 2.63-3.6 4.46-2.33 1.84-6.22 1.84h-13.43l41.93-82.88q1.42-2.54 2.81-4.68 1.39-2.14 3.11-4.09h-51.9q-1.73 0-3-1.27-1.27-1.28-1.27-3v-12.53Z"/></svg>